<svg width="24" height="24" viewBox="0 0 24 24" fill="none" xmlns="http://www.w3.org/2000/svg">
<mask id="mask0_1122_7324" style="mask-type:alpha" maskUnits="userSpaceOnUse" x="0" y="0" width="24" height="24">
<rect width="24" height="24" fill="#D9D9D9"/>
</mask>
<g mask="url(#mask0_1122_7324)">
<path d="M9.91507 15.9443L19.1253 5.37416C19.3427 5.12472 19.6008 5 19.8997 5C20.1985 5 20.4566 5.12472 20.674 5.37416C20.8913 5.62361 21 5.91982 21 6.26281C21 6.60579 20.8913 6.902 20.674 7.15145L10.6758 18.6258C10.4584 18.8753 10.2049 19 9.91507 19C9.62526 19 9.37169 18.8753 9.15434 18.6258L3.31299 11.922C3.09563 11.6726 2.99149 11.3764 3.00054 11.0334C3.0096 10.6904 3.1228 10.3942 3.34016 10.1448C3.55751 9.89532 3.81561 9.7706 4.11447 9.7706C4.41333 9.7706 4.67143 9.89532 4.88879 10.1448L9.91507 15.9443Z" fill="#120E46"/>
</g>
</svg>
