<svg width="24" height="24" viewBox="0 0 24 24" fill="none" xmlns="http://www.w3.org/2000/svg">
<g clip-path="url(#clip0_1122_7551)">
<rect width="24" height="24" rx="4" fill="#120E46"/>
<mask id="mask0_1122_7551" style="mask-type:alpha" maskUnits="userSpaceOnUse" x="0" y="0" width="24" height="24">
<rect x="0.5" y="0.5" width="23" height="23" fill="#120E46"/>
</mask>
<g mask="url(#mask0_1122_7551)">
<path d="M10.0019 15.7798L18.8285 5.65008C19.0367 5.41103 19.2841 5.2915 19.5705 5.2915C19.8569 5.2915 20.1043 5.41103 20.3126 5.65008C20.5209 5.88913 20.625 6.173 20.625 6.50169C20.625 6.83039 20.5209 7.11426 20.3126 7.35331L10.731 18.3496C10.5227 18.5886 10.2797 18.7082 10.0019 18.7082C9.72421 18.7082 9.4812 18.5886 9.27291 18.3496L3.67495 11.9251C3.46665 11.6861 3.36684 11.4022 3.37552 11.0735C3.3842 10.7448 3.49269 10.461 3.70098 10.2219C3.90928 9.98285 4.15663 9.86333 4.44303 9.86333C4.72944 9.86333 4.97679 9.98285 5.18509 10.2219L10.0019 15.7798Z" fill="white"/>
</g>
</g>
<defs>
<clipPath id="clip0_1122_7551">
<rect width="24" height="24" rx="4" fill="white"/>
</clipPath>
</defs>
</svg>
