<svg xmlns="http://www.w3.org/2000/svg" viewBox="0 0 1071.8 695.34"><defs><style>.cls-1{fill:#444242;}.cls-2{fill:#ff4a4a;}</style></defs><g id="Layer_2" data-name="Layer 2"><g id="OBJECTS"><polygon class="cls-1" points="0 223.04 0 223.04 0 223.04 0 223.04"/><rect class="cls-1" x="389.37" width="334.08" height="222.56"/><path class="cls-1" d="M626.44,235.71a111.28,111.28,0,0,0,0,222.56Z"/><path class="cls-1" d="M152.29,0a111.28,111.28,0,0,0,0,222.56H263.58V111.28A111.41,111.41,0,0,0,152.29,0Z"/><path class="cls-1" d="M960.52,695.34a111.28,111.28,0,0,0,0-222.56H849.24V584.06A111.41,111.41,0,0,0,960.52,695.34Z"/><path class="cls-1" d="M723.33,235.71a111.28,111.28,0,0,0,0,222.56H834.61V347A111.41,111.41,0,0,0,723.33,235.71Z"/><path class="cls-1" d="M41,347a111.29,111.29,0,0,0,222.57,0V235.71H152.29A111.41,111.41,0,0,0,41,347Z"/><path class="cls-1" d="M41,584.06a111.29,111.29,0,0,0,222.57,0V472.78H152.29A111.41,111.41,0,0,0,41,584.06Z"/><path class="cls-1" d="M389.37,458.27a111.28,111.28,0,0,0,0-222.56H278.08V347A111.41,111.41,0,0,0,389.37,458.27Z"/><path class="cls-1" d="M389.37,0a111.28,111.28,0,0,1,0,222.56H278.08V111.28A111.41,111.41,0,0,1,389.37,0Z"/><rect class="cls-1" x="849.24" y="111.28" width="222.56" height="346.99"/><path class="cls-1" d="M1071.8,111.28a111.28,111.28,0,0,1-222.56,0V0H960.52A111.41,111.41,0,0,1,1071.8,111.28Z"/><rect class="cls-1" x="384.89" y="472.78" width="338.56" height="222.56"/><path class="cls-1" d="M723.44,695.34a111.28,111.28,0,0,1,0-222.56H834.72V584.06A111.41,111.41,0,0,1,723.44,695.34Z"/><circle class="cls-2" cx="723.44" cy="111.28" r="111.28" transform="translate(133.2 544.15) rotate(-45)"/><circle class="cls-2" cx="389.37" cy="584.06" r="111.28" transform="translate(-298.95 446.39) rotate(-45)"/><rect class="cls-1" x="626.44" y="235.71" width="97.01" height="222.56"/><rect class="cls-1" x="278.08" y="303.65" width="106.8" height="154.53"/><rect class="cls-1" x="41.01" y="584.06" width="222.56" height="111.28" transform="translate(304.59 1279.41) rotate(180)"/></g></g></svg>